# This file uses centimeters as units for non-parametric coordinates.

mtllib Rasen_Ecke.mtl
g default
v -1.500000 -0.050000 -3.500000
v 1.500000 -0.050000 -3.500000
v -1.500000 0.050000 -3.500000
v 1.500000 0.050000 -3.500000
v -1.500000 0.050000 -6.500000
v 1.500000 0.050000 -6.500000
v -1.500000 -0.050000 -6.500000
v 1.500000 -0.050000 -6.500000
v 0.500000 0.000000 -4.500000
v 0.500000 0.000000 -5.500000
v 0.500001 0.100000 -4.500000
v 0.500001 0.100000 -5.500000
v -0.500000 0.100000 -4.500000
v -0.500000 0.100000 -5.500000
v -0.500000 0.000000 -4.500000
v -0.500000 0.000000 -5.500000
vt 0.375000 0.000000
vt 0.625000 0.000000
vt 0.375000 0.250000
vt 0.625000 0.250000
vt 0.375000 0.500000
vt 0.625000 0.500000
vt 0.375000 0.750000
vt 0.625000 0.750000
vt 0.375000 1.000000
vt 0.625000 1.000000
vt 0.875000 0.000000
vt 0.875000 0.250000
vt 0.125000 0.000000
vt 0.125000 0.250000
vt 0.001992 0.001992
vt 0.998008 0.001992
vt 0.998008 0.998008
vt 0.001992 0.998008
vt 0.375000 0.000000
vt 0.625000 0.000000
vt 0.625000 0.250000
vt 0.375000 0.250000
vt 0.625000 0.500000
vt 0.375000 0.500000
vt 0.625000 0.750000
vt 0.375000 0.750000
vt 0.625000 1.000000
vt 0.375000 1.000000
vt 0.875000 0.000000
vt 0.875000 0.250000
vt 0.125000 0.000000
vt 0.125000 0.250000
vn 0.000000 0.000000 1.000000
vn 0.000000 0.000000 1.000000
vn 0.000000 0.000000 1.000000
vn 0.000000 0.000000 1.000000
vn 0.000000 1.000000 0.000000
vn 0.000000 1.000000 0.000000
vn 0.000000 1.000000 0.000000
vn 0.000000 1.000000 0.000000
vn 0.000000 0.000000 -1.000000
vn 0.000000 0.000000 -1.000000
vn 0.000000 0.000000 -1.000000
vn 0.000000 0.000000 -1.000000
vn 0.000000 -1.000000 0.000000
vn 0.000000 -1.000000 0.000000
vn 0.000000 -1.000000 0.000000
vn 0.000000 -1.000000 0.000000
vn 1.000000 0.000000 0.000000
vn 1.000000 0.000000 0.000000
vn 1.000000 0.000000 0.000000
vn 1.000000 0.000000 0.000000
vn -1.000000 0.000000 0.000000
vn -1.000000 0.000000 0.000000
vn -1.000000 0.000000 0.000000
vn -1.000000 0.000000 0.000000
vn 1.000000 -0.000006 0.000000
vn 1.000000 -0.000006 0.000000
vn 1.000000 -0.000006 0.000000
vn 1.000000 -0.000006 0.000000
vn 0.000000 1.000000 0.000000
vn 0.000000 1.000000 0.000000
vn 0.000000 1.000000 0.000000
vn 0.000000 1.000000 0.000000
vn -1.000000 0.000001 0.000000
vn -1.000000 0.000000 0.000000
vn -1.000000 0.000001 0.000000
vn -1.000000 0.000000 0.000000
vn 0.000000 -1.000000 0.000000
vn 0.000000 -1.000000 0.000000
vn 0.000000 -1.000000 0.000000
vn 0.000000 -1.000000 0.000000
vn 0.000000 0.000000 -1.000000
vn 0.000000 0.000000 -1.000000
vn 0.000000 0.000000 -1.000000
vn 0.000000 0.000000 -1.000000
vn 0.000000 0.000000 1.000000
vn 0.000000 0.000000 1.000000
vn 0.000000 0.000000 1.000000
vn 0.000000 0.000000 1.000000
s 1
g Weg_Ecke
usemtl initialShadingGroup
f 1/1/1 2/2/2 3/3/3
f 3/3/3 2/2/2 4/4/4
s 2
usemtl pasted__lambert9SG1
f 3/15/5 4/16/6 5/18/7
f 5/18/7 4/16/6 6/17/8
s 3
usemtl initialShadingGroup
f 5/5/9 6/6/10 7/7/11
f 7/7/11 6/6/10 8/8/12
s 4
f 7/7/13 8/8/14 1/9/15
f 1/9/15 8/8/14 2/10/16
s 5
f 2/2/17 8/11/18 4/4/19
f 4/4/19 8/11/18 6/12/20
s 6
f 7/13/21 1/1/22 5/14/23
f 5/14/23 1/1/22 3/3/24
s 7
usemtl pasted__pasted__lambert8SG2
f 9/19/25 10/20/26 11/22/27
f 11/22/27 10/20/26 12/21/28
s 8
f 11/22/29 12/21/30 13/24/31
f 13/24/31 12/21/30 14/23/32
s 9
f 13/24/33 14/23/34 15/26/35
f 15/26/35 14/23/34 16/25/36
s 10
f 15/26/37 16/25/38 9/28/39
f 9/28/39 16/25/38 10/27/40
s 11
f 10/20/41 16/29/42 12/21/43
f 12/21/43 16/29/42 14/30/44
s 12
f 15/31/45 9/19/46 13/32/47
f 13/32/47 9/19/46 11/22/48
