# This file uses centimeters as units for non-parametric coordinates.

mtllib Rasen.mtl
g default
v -5.500000 0.000000 -1.500000
v -4.500000 0.000000 -1.500000
v -5.500000 0.100000 -1.500000
v -4.500000 0.100000 -1.500000
v -5.500000 0.100000 -2.000000
v -4.500000 0.100000 -2.000000
v -5.500000 0.000000 -2.000000
v -4.500000 0.000000 -2.000000
v -6.500000 -0.050000 2.500000
v -3.500000 -0.050000 2.500000
v -6.500000 0.050000 2.500000
v -3.500000 0.050000 2.500000
v -6.500000 0.050000 -2.500000
v -3.500000 0.050000 -2.500000
v -6.500000 -0.050000 -2.500000
v -3.500000 -0.050000 -2.500000
v -5.500000 0.000000 2.000000
v -4.500000 0.000000 2.000000
v -5.500000 0.100000 2.000000
v -4.500000 0.100000 2.000000
v -5.500000 0.100000 1.500000
v -4.500000 0.100000 1.500000
v -5.500000 0.000000 1.500000
v -4.500000 0.000000 1.500000
v -5.500000 0.000000 0.250000
v -4.500000 0.000000 0.250000
v -5.500000 0.100000 0.250000
v -4.500000 0.100000 0.250000
v -5.500000 0.100000 -0.250000
v -4.500000 0.100000 -0.250000
v -5.500000 0.000000 -0.250000
v -4.500000 0.000000 -0.250000
vt 0.375000 0.000000
vt 0.625000 0.000000
vt 0.375000 0.250000
vt 0.625000 0.250000
vt 0.375000 0.500000
vt 0.625000 0.500000
vt 0.375000 0.750000
vt 0.625000 0.750000
vt 0.375000 1.000000
vt 0.625000 1.000000
vt 0.875000 0.000000
vt 0.875000 0.250000
vt 0.125000 0.000000
vt 0.125000 0.250000
vt 0.375000 0.000000
vt 0.625000 0.000000
vt 0.625000 0.250000
vt 0.375000 0.250000
vt 0.001992 0.001992
vt 0.998008 0.001992
vt 0.998008 0.998008
vt 0.001992 0.998008
vt 0.375000 0.500000
vt 0.625000 0.500000
vt 0.625000 0.750000
vt 0.375000 0.750000
vt 0.625000 1.000000
vt 0.375000 1.000000
vt 0.875000 0.000000
vt 0.875000 0.250000
vt 0.125000 0.000000
vt 0.125000 0.250000
vt 0.375000 0.000000
vt 0.625000 0.000000
vt 0.625000 0.250000
vt 0.375000 0.250000
vt 0.625000 0.500000
vt 0.375000 0.500000
vt 0.625000 0.750000
vt 0.375000 0.750000
vt 0.625000 1.000000
vt 0.375000 1.000000
vt 0.875000 0.000000
vt 0.875000 0.250000
vt 0.125000 0.000000
vt 0.125000 0.250000
vt 0.375000 0.000000
vt 0.625000 0.000000
vt 0.625000 0.250000
vt 0.375000 0.250000
vt 0.625000 0.500000
vt 0.375000 0.500000
vt 0.625000 0.750000
vt 0.375000 0.750000
vt 0.625000 1.000000
vt 0.375000 1.000000
vt 0.875000 0.000000
vt 0.875000 0.250000
vt 0.125000 0.000000
vt 0.125000 0.250000
vn 0.000000 -0.000002 1.000000
vn 0.000000 -0.000002 1.000000
vn 0.000000 -0.000002 1.000000
vn 0.000000 -0.000002 1.000000
vn 0.000000 1.000000 0.000000
vn 0.000000 1.000000 0.000000
vn 0.000000 1.000000 0.000000
vn 0.000000 1.000000 0.000000
vn 0.000000 0.000000 -1.000000
vn 0.000000 0.000000 -1.000000
vn 0.000000 0.000000 -1.000000
vn 0.000000 0.000000 -1.000000
vn 0.000000 -1.000000 0.000000
vn 0.000000 -1.000000 0.000000
vn 0.000000 -1.000000 0.000000
vn 0.000000 -1.000000 0.000000
vn 1.000000 -0.000005 0.000000
vn 1.000000 -0.000001 0.000000
vn 1.000000 -0.000004 0.000000
vn 1.000000 0.000000 0.000000
vn -1.000000 0.000000 0.000000
vn -1.000000 0.000000 0.000000
vn -1.000000 0.000000 0.000000
vn -1.000000 0.000000 0.000000
vn 0.000000 0.000000 1.000000
vn 0.000000 0.000000 1.000000
vn 0.000000 0.000000 1.000000
vn 0.000000 0.000000 1.000000
vn 0.000000 1.000000 0.000000
vn 0.000000 1.000000 0.000000
vn 0.000000 1.000000 0.000000
vn 0.000000 1.000000 0.000000
vn 0.000000 0.000000 -1.000000
vn 0.000000 0.000000 -1.000000
vn 0.000000 0.000000 -1.000000
vn 0.000000 0.000000 -1.000000
vn 0.000000 -1.000000 0.000000
vn 0.000000 -1.000000 0.000000
vn 0.000000 -1.000000 0.000000
vn 0.000000 -1.000000 0.000000
vn 1.000000 0.000000 0.000000
vn 1.000000 0.000000 0.000000
vn 1.000000 0.000000 0.000000
vn 1.000000 0.000000 0.000000
vn -1.000000 0.000000 0.000000
vn -1.000000 0.000000 0.000000
vn -1.000000 0.000000 0.000000
vn -1.000000 0.000000 0.000000
vn 0.000000 -0.000002 1.000000
vn 0.000000 -0.000002 1.000000
vn 0.000000 -0.000002 1.000000
vn 0.000000 -0.000002 1.000000
vn 0.000000 1.000000 0.000000
vn 0.000000 1.000000 0.000000
vn 0.000000 1.000000 0.000000
vn 0.000000 1.000000 0.000000
vn 0.000000 0.000000 -1.000000
vn 0.000000 0.000000 -1.000000
vn 0.000000 0.000000 -1.000000
vn 0.000000 0.000000 -1.000000
vn 0.000000 -1.000000 0.000000
vn 0.000000 -1.000000 0.000000
vn 0.000000 -1.000000 0.000000
vn 0.000000 -1.000000 0.000000
vn 1.000000 -0.000005 0.000000
vn 1.000000 -0.000001 0.000000
vn 1.000000 -0.000004 0.000000
vn 1.000000 0.000000 0.000000
vn -1.000000 0.000000 0.000000
vn -1.000000 0.000000 0.000000
vn -1.000000 0.000000 0.000000
vn -1.000000 0.000000 0.000000
vn 0.000000 -0.000003 1.000000
vn 0.000000 -0.000003 1.000000
vn 0.000000 -0.000003 1.000000
vn 0.000000 -0.000003 1.000000
vn 0.000000 1.000000 0.000000
vn 0.000000 1.000000 0.000000
vn 0.000000 1.000000 0.000000
vn 0.000000 1.000000 0.000000
vn 0.000000 0.000000 -1.000000
vn 0.000000 0.000000 -1.000000
vn 0.000000 0.000000 -1.000000
vn 0.000000 0.000000 -1.000000
vn 0.000000 -1.000000 0.000000
vn 0.000000 -1.000000 0.000000
vn 0.000000 -1.000000 0.000000
vn 0.000000 -1.000000 0.000000
vn 1.000000 0.000004 0.000000
vn 1.000000 0.000000 0.000000
vn 1.000000 0.000003 0.000000
vn 1.000000 0.000000 0.000000
vn -1.000000 -0.000003 0.000000
vn -1.000000 -0.000000 0.000000
vn -1.000000 -0.000003 0.000000
vn -1.000000 0.000000 0.000000
s 1
g Weg
usemtl pasted__lambert8SG1
f 1/1/1 2/2/2 3/3/3
f 3/3/3 2/2/2 4/4/4
s 2
f 3/3/5 4/4/6 5/5/7
f 5/5/7 4/4/6 6/6/8
s 3
f 5/5/9 6/6/10 7/7/11
f 7/7/11 6/6/10 8/8/12
s 4
f 7/7/13 8/8/14 1/9/15
f 1/9/15 8/8/14 2/10/16
s 5
f 2/2/17 8/11/18 4/4/19
f 4/4/19 8/11/18 6/12/20
s 6
f 7/13/21 1/1/22 5/14/23
f 5/14/23 1/1/22 3/3/24
s 7
usemtl initialShadingGroup
f 9/15/25 10/16/26 11/18/27
f 11/18/27 10/16/26 12/17/28
s 8
usemtl lambert9SG
f 11/19/29 12/20/30 13/22/31
f 13/22/31 12/20/30 14/21/32
s 9
usemtl initialShadingGroup
f 13/23/33 14/24/34 15/26/35
f 15/26/35 14/24/34 16/25/36
s 10
f 15/26/37 16/25/38 9/28/39
f 9/28/39 16/25/38 10/27/40
s 11
f 10/16/41 16/29/42 12/17/43
f 12/17/43 16/29/42 14/30/44
s 12
f 15/31/45 9/15/46 13/32/47
f 13/32/47 9/15/46 11/18/48
s 13
usemtl pasted__lambert8SG
f 17/33/49 18/34/50 19/36/51
f 19/36/51 18/34/50 20/35/52
s 14
f 19/36/53 20/35/54 21/38/55
f 21/38/55 20/35/54 22/37/56
s 15
f 21/38/57 22/37/58 23/40/59
f 23/40/59 22/37/58 24/39/60
s 16
f 23/40/61 24/39/62 17/42/63
f 17/42/63 24/39/62 18/41/64
s 17
f 18/34/65 24/43/66 20/35/67
f 20/35/67 24/43/66 22/44/68
s 18
f 23/45/69 17/33/70 21/46/71
f 21/46/71 17/33/70 19/36/72
s 19
usemtl lambert8SG
f 25/47/73 26/48/74 27/50/75
f 27/50/75 26/48/74 28/49/76
s 20
f 27/50/77 28/49/78 29/52/79
f 29/52/79 28/49/78 30/51/80
s 21
f 29/52/81 30/51/82 31/54/83
f 31/54/83 30/51/82 32/53/84
s 22
f 31/54/85 32/53/86 25/56/87
f 25/56/87 32/53/86 26/55/88
s 23
f 26/48/89 32/57/90 28/49/91
f 28/49/91 32/57/90 30/58/92
s 24
f 31/59/93 25/47/94 29/60/95
f 29/60/95 25/47/94 27/50/96
